<?xml version="1.0" encoding="UTF-8"?>
<svg width="62px" height="94px" viewBox="0 0 62 94" version="1.1" xmlns="http://www.w3.org/2000/svg" xmlns:xlink="http://www.w3.org/1999/xlink">
    <title>自定义预设 2</title>
    <g id="自定义预设-2" stroke="none" stroke-width="1" fill="none" fill-rule="evenodd">
        <g id="编组-14备份">
            <path d="M6.59830546,0.090994984 C4.82175645,2.13964301 4.00318232,3.20881775 4.14258307,3.29851923 C4.35168418,3.43307145 4.79501096,3.48739377 4.79501096,3.86430712 C4.79501096,4.24122047 4.29900367,4.4835816 4.08990255,4.75352176 C3.88161191,5.02346192 4.08990255,5.31930965 4.16851809,5.61599311 C4.24713362,5.91184084 4.45623474,5.96616316 4.32493869,6.4233064 C4.19445311,6.88128537 4.66452538,6.80105548 4.79501096,6.9356077 C4.92711748,7.07099564 5.73677645,7.23145542 5.73677645,7.5824612 C5.73677645,7.93263126 6.51968992,8.28280131 7.01731816,8.44409682 C7.51332545,8.60622806 8.19249884,8.55190574 8.47940502,8.55190574 C8.76712167,8.55190574 9.31661995,9.06420703 9.29797915,9.06086412 C9.30608385,8.99651306 9.35633295,8.98732005 9.47547196,8.98732005 C9.5938005,8.98732005 9.76318861,8.96141248 9.81424818,8.85778221 C9.86449729,8.7533162 9.89124278,8.70066533 10.0006562,8.64885019 C10.11088,8.59619933 10.3572627,8.53519118 10.2551436,8.70902261 C10.1530244,8.88368977 10.0428006,9.06587849 10.1700443,9.08342878 C10.297288,9.10097907 10.5850046,8.9530552 10.6190443,8.78758105 C10.6530841,8.6221069 10.6028349,8.44827546 10.7292682,8.45663274 C10.8565119,8.46582575 11.0007754,8.38726731 11.0007754,8.63965718 C11.0007754,8.89204706 11.0348152,8.96141248 11.1442285,8.90040434 C11.2544524,8.83939619 11.4076311,8.7265729 11.4238405,8.61374962 C11.4416708,8.50092633 11.4238405,8.41317488 11.3898008,8.31790189 C11.3565715,8.22262889 11.3055119,8.01369688 11.3136166,7.92594543 C11.3225318,7.83902972 11.3395517,7.38690084 11.4667954,7.50891714 C11.5932286,7.63093343 11.6183532,7.72620643 11.6272683,7.85658 C11.6361835,7.98778931 11.6021438,8.21343588 11.8396113,8.24770073 C12.0770789,8.28280131 12.0770789,8.24770073 12.1192233,8.44827546 C12.1613677,8.64885019 12.1783875,8.82268163 12.3647955,8.80513134 C12.5512035,8.78758105 12.5941584,8.69147232 12.5852432,8.57864904 C12.576328,8.46582575 12.5512035,8.38726731 12.5601186,8.30870888 C12.5674129,8.23098617 12.576328,8.23934345 12.5512035,8.13487744 C12.5260789,8.03041144 12.5260789,7.94349572 12.6192829,8.03041144 C12.7116764,8.11732715 12.788671,8.16997802 12.7708407,8.28280131 C12.7546313,8.39646032 12.7116764,8.51764089 12.8137956,8.6312999 C12.9151042,8.74412319 12.9831837,8.77922377 13.1436566,8.77003076 C13.30494,8.76083775 13.3730195,8.77003076 13.491348,8.83939619 C13.6096766,8.90959734 13.8471441,8.97896277 13.677756,9.06587849 C13.5083679,9.15279421 13.3900393,9.25726021 13.3900393,9.39599107 C13.3900393,9.53555765 13.5002632,9.60492308 13.6266964,9.67428851 C13.7539401,9.74448966 13.9914077,9.69267453 14.076507,9.54391493 C14.1607958,9.39599107 14.1778156,9.34417593 14.2880395,9.41437709 C14.3982633,9.48374251 14.592776,9.50045707 14.7962038,9.39599107 C14.9996316,9.29152506 15.2881588,9.16198721 15.3384079,8.98732005 C15.3894674,8.81348862 15.2703284,8.70066533 15.1528104,8.65637175 C15.0336714,8.61374962 14.9996316,8.50928361 15.0936461,8.42236789 C15.1860396,8.33545218 15.2703284,8.30870888 15.347323,8.23098617 C15.4235072,8.15242773 15.4235072,8.18752831 15.414592,8.31790189 C15.4064873,8.44827546 15.4064873,8.83020318 15.5669602,8.77922377 C15.7290541,8.7265729 15.7541787,8.70066533 15.7541787,8.8485892 C15.7541787,8.99651306 15.7363484,9.20544507 15.8806119,9.26561749 C16.0248755,9.32662564 16.1521192,9.29152506 16.1521192,9.17870178 C16.1521192,9.06587849 16.1772437,9.09178606 16.2372185,9.19625206 C16.2963827,9.30071807 16.3636517,9.30991108 16.5079153,9.30991108 C16.6513684,9.30991108 16.7113431,9.30991108 16.7194478,9.46619222 C16.7283629,9.6233091 16.7194478,9.7277751 16.5330398,9.78794752 C16.3466318,9.84895567 16.1772437,9.90160654 16.1602239,10.0486947 C16.143204,10.1966185 16.1521192,10.2492694 16.0337906,10.37045 C15.9146516,10.4924663 15.8554874,10.6320329 15.8303628,10.8142216 C15.8044278,10.9964103 15.8044278,11.1451699 15.7703881,11.2839007 C15.7363484,11.4234673 15.6950144,11.8229453 15.8554874,11.7970377 C16.0159603,11.7711302 16.0337906,11.7184793 16.0337906,11.8755962 C16.0337906,12.0318773 16.0248755,12.1798012 16.1602239,12.1889942 C16.2963827,12.1973515 16.3385271,12.2057088 16.1861589,12.3444396 C16.0337906,12.4840062 15.9997509,12.5968295 16.1091643,12.7196815 C16.2193881,12.8408621 16.2112834,12.8408621 16.2372185,12.9545211 C16.262343,13.0673444 16.2963827,13.093252 16.3887763,13.1801677 C16.4819802,13.2670834 16.5500597,13.302184 16.7032384,13.3188985 C16.8547962,13.3372845 16.9066662,13.40665 16.7624027,13.4409148 C16.6181391,13.4760154 16.4406463,13.4501078 16.4479405,13.5804814 C16.4568557,13.710855 16.5500597,13.7543128 16.5589748,13.9022367 C16.5670795,14.0501606 16.5759947,14.223992 16.6854081,14.2415423 C16.7956319,14.2590926 16.9066662,14.1629839 16.9739352,14.1370763 C17.0420146,14.1111687 17.1263034,14.0677109 17.2794822,14.1462693 C17.43104,14.223992 18.066448,14.1370763 18.2277314,14.0501606 C18.3890148,13.9632448 18.6264824,13.5896744 18.727791,13.4760154 C18.8299102,13.3631921 18.8801593,13.1099665 18.7618308,13.0055005 C18.6426918,12.9018702 18.5413831,12.8935129 18.4733036,12.7455891 C18.4052242,12.5968295 18.2868957,12.5801149 18.1945022,12.5533716 C18.1004877,12.5274641 18.0753632,12.4229981 18.0591538,12.2842672 C18.0413234,12.1447006 18.0510491,11.959169 18.1345274,12.1012428 C18.4044137,12.5592217 18.4595257,12.072828 18.1434426,11.7878447 C18.0340292,11.6909003 17.9392043,11.6925717 17.8038559,11.710122 C17.6685075,11.7276723 17.6182584,11.710122 17.6004281,11.6407566 C17.5842187,11.5713912 17.5842187,11.3883667 17.6004281,11.3098083 C17.6182584,11.2312499 17.6433829,11.2053423 17.5590941,11.1535272 C17.4739948,11.1008763 17.4059154,10.9796957 17.550179,10.883587 C17.693632,10.788314 17.8630202,10.6320329 17.9651393,10.6579404 C18.066448,10.683848 18.0753632,10.7532134 18.0324083,10.8409649 C17.9910743,10.9270449 17.8468108,11.1359769 17.9148902,11.2053423 C17.9821592,11.2747077 18.0413234,11.1451699 18.1515473,11.1008763 C18.2617711,11.0574184 18.3800997,11.0223178 18.5332784,11.1535272 C18.6856466,11.2839007 18.8120799,11.3975597 18.8380149,11.2747077 C18.8631394,11.1535272 18.9223037,10.788314 18.7367062,10.8058643 C18.5494878,10.8225788 18.4141394,10.779121 18.3209354,10.7440204 C18.2277314,10.7097556 18.2358361,10.5359241 18.3120202,10.4924663 C18.3890148,10.4490084 18.6353975,10.3361851 18.5924427,10.1097028 C18.5494878,9.88322052 18.5073434,9.73529666 18.465199,9.64002366 C18.4230545,9.54391493 18.4052242,9.41437709 18.39793,9.31826836 C18.3890148,9.22215963 18.4392639,9.23135264 18.4822188,9.32662564 C18.5243632,9.42189864 18.5073434,9.46619222 18.6175672,9.4745495 C18.727791,9.48374251 18.6597116,9.56146522 18.6516069,9.6233091 C18.6426918,9.68348152 18.6426918,9.74448966 18.7026665,9.76203995 C18.7618308,9.77875451 18.7529156,9.87486324 18.7440004,9.94422867 C18.7367062,10.0135941 18.6516069,10.1966185 18.8039752,10.1966185 C18.9563434,10.1966185 19.3883236,10.0311444 19.4896323,9.87486324 C19.5917515,9.71858209 19.7198056,9.43109165 19.922423,9.45699922 C20.1250404,9.48374251 20.4905621,9.44028465 20.6939899,9.37927651 C20.8974177,9.31826836 21.1170549,9.29152506 21.236194,9.29152506 C21.3545225,9.29152506 21.5579503,9.29152506 21.5409305,9.22215963 C21.5239106,9.15279421 21.4898709,9.08342878 21.5749702,9.10097907 C21.659259,9.11769363 21.9137464,9.10933635 21.7946074,9.2480672 C21.6770893,9.38763379 21.6430496,9.37927651 21.6681742,9.49209979 C21.6932987,9.60492308 21.8035226,9.50045707 21.8464774,9.45699922 C21.8878114,9.41437709 21.9639955,9.3700835 22.0831345,9.32662564 C22.2014631,9.28316778 22.3035822,9.21380235 22.2265876,9.17870178 C22.1512139,9.1436012 22.1171742,9.08342878 22.2695425,9.06587849 C22.4219107,9.0483282 22.5572591,9.06587849 22.6763981,9.13607965 C22.7947267,9.20544507 22.9300751,9.2480672 22.9981545,9.15279421 C23.0654235,9.05752121 23.0313838,9.01406335 23.1424181,9.08342878 C23.2526419,9.15279421 23.3118062,9.13607965 23.3628658,9.0483282 C23.4131149,8.96141248 23.5233387,8.85778221 23.6076275,8.77003076 C23.6927268,8.68311504 23.7527016,8.53519118 23.6076275,8.41317488 C23.4641744,8.29199432 23.42203,8.24770073 23.5914181,8.24770073 C23.7608063,8.24770073 23.8540102,8.26608675 23.9301944,8.37807431 C24.0063785,8.49173332 23.9982738,8.50092633 24.0744579,8.52599817 C24.1498316,8.55190574 24.1676619,8.61374962 24.0825626,8.71821562 C23.9982738,8.82268163 23.8199705,9.03997092 23.9050698,9.07423577 C23.9893586,9.10933635 24.031503,9.0483282 24.124707,8.96976976 C24.217911,8.89204706 24.2778858,8.8485892 24.430254,8.8485892 C24.5826223,8.8485892 24.7779454,8.73576591 24.5826223,8.67475776 C24.3872991,8.61374962 24.2098063,8.54438419 24.3621746,8.43991818 C24.5153533,8.33545218 24.5745176,8.25689374 24.5064381,8.20424287 C24.350828,8.08556949 24.787671,8.03626153 24.8371097,8.03960445 C24.9635429,8.04796173 25.0737667,8.03041144 25.1507613,8.03041144 C25.226135,8.03041144 25.2690899,8.06551202 25.3112343,8.16997802 C25.3541892,8.27444403 25.4806224,8.45663274 25.6759455,8.43991818 C25.8704582,8.42236789 26.0236369,8.23934345 26.0657813,8.11732715 C26.1071153,7.99531086 25.9636622,7.63929071 25.9555575,7.36099327 C25.9466423,7.08269583 25.9717669,6.96987255 26.047951,7.13451097 C26.1249456,7.29998512 26.0819907,7.35263599 26.2092344,7.37854356 C26.3364781,7.40445113 26.3194583,7.42200142 26.2854185,7.52646743 C26.2513788,7.63093343 26.1751947,7.90003786 26.3024384,8.03960445 C26.4296821,8.1783353 26.5569258,8.23098617 26.7011894,8.25689374 C26.8454529,8.28280131 27.0059259,8.05715474 27.0991299,7.92594543 C27.1923338,7.79557186 27.3787418,7.51727442 27.5059855,7.46545928 C27.6324188,7.41280841 27.7596625,7.47381656 27.8536769,7.57828256 C27.9468809,7.68274857 28.1073538,7.74375672 28.183538,7.67439129 C28.2605326,7.60502586 28.3699459,7.49136685 28.4461301,7.40445113 C28.5223142,7.31753541 28.5052943,7.19551912 28.4210055,7.07433855 C28.3359062,6.95148653 28.3188864,6.81275567 28.4039857,6.72583996 C28.4890849,6.63892424 28.4971896,6.56955881 28.5142095,6.4650928 C28.5312294,6.3606268 28.4890849,6.21270293 28.4631499,6.10907266 C28.4372149,6.00460665 28.4550452,5.74302377 28.4372149,5.62936476 C28.4210055,5.5173772 28.395881,5.23907976 28.4712546,5.32515975 C28.5474387,5.41291119 28.5312294,5.56919234 28.5393341,5.7171162 C28.5474387,5.86504007 28.5223142,6.23025322 28.6155182,6.29961865 C28.7087222,6.36898408 28.7597817,6.43918523 28.7508666,6.56955881 C28.7443828,6.66901045 28.7759911,6.80021975 28.8659532,6.87710673 C28.8781103,6.88880692 28.8894568,6.90385003 28.9056662,6.91137158 C28.9226861,6.92140032 28.951863,6.94563643 28.9632096,6.96402245 C28.9753666,6.98575138 28.9980598,7.03088069 29.0045435,7.11946787 C29.0085959,7.18799757 29.0069749,7.24148416 29.0337204,7.30332804 C29.0499298,7.34177153 29.0799172,7.33090706 29.1285453,7.3676791 C29.1512385,7.38522939 29.1796049,7.42032996 29.1917619,7.44373035 C29.2095923,7.47883093 29.2217493,7.5256317 29.2412006,7.55404645 C29.2849659,7.62090469 29.3360255,7.66101964 29.3546663,7.66770547 C29.376549,7.67522702 29.4964985,7.69444876 29.494067,7.59165421 C29.4924461,7.5256317 29.4851519,7.44874472 29.4389551,7.39860103 C29.3935688,7.34929308 29.2622728,7.4094655 29.2484948,7.3409358 C29.243632,7.31753541 29.2452529,7.29413503 29.2468739,7.26989891 C29.2484948,7.24649853 29.2517367,7.22059096 29.2630833,7.18966902 C29.2768612,7.14955408 29.3036067,7.11361777 29.3173847,7.07517428 C29.3295418,7.04341661 29.3327836,6.98993002 29.3433197,6.96151526 C29.3611501,6.91304304 29.3830327,6.89549275 29.388706,6.89214984 C29.4203143,6.87459955 29.4859624,6.971544 29.4843414,7.00580885 C29.4827205,7.04090943 29.495688,7.0935603 29.5200021,7.13116806 C29.5418847,7.16543291 29.5734931,7.18716184 29.601049,7.18966902 C29.6561609,7.19551912 29.8676935,7.26822746 29.9033541,7.13952534 C29.9147007,7.10024612 29.9130797,7.05428108 29.8822819,6.99494439 C29.8587783,6.95232226 29.839327,6.89632848 29.825549,6.84702052 C29.7923198,6.73169005 29.7988036,6.61301667 29.8004245,6.59630211 C29.8036664,6.5603658 29.7842151,6.45840698 29.7988036,6.4558998 C29.8693144,6.44336388 29.9925058,6.58293046 30.1383902,6.60298793 C30.3385762,6.55618716 30.4844607,6.31466176 30.4617676,6.18763109 C30.4398849,6.06060043 30.4731141,5.98037054 30.4949968,5.84163968 C30.5185004,5.70374455 30.4512315,5.70374455 30.3839625,5.62267893 C30.3166935,5.54244904 30.2826538,5.43881876 30.3604589,5.28922344 C30.4398849,5.13879239 30.3944986,4.90896718 30.3045365,4.75937186 C30.2153848,4.60977654 30.2713072,4.54041111 30.3726159,4.5521113 C30.4731141,4.5638115 30.4277278,4.40251598 30.3839625,4.28718551 C30.3385762,4.17185504 30.3944986,4.18355523 30.4844607,4.17185504 C30.5744228,4.16015485 30.5306575,4.02894555 30.3782892,3.80329897 C30.2251105,3.57681667 30.1910708,3.4556361 30.1999859,3.28180467 C30.2089011,3.10797324 30.2761701,3.03777208 30.4285383,3.11549479 C30.581717,3.19405323 30.6660059,3.29851923 30.6238614,3.42053553 C30.581717,3.54255182 30.5225528,3.68128268 30.5728019,3.74229082 C30.6238614,3.80329897 30.6830257,3.89857197 30.74219,4.00303798 C30.8013542,4.10750398 30.8694337,4.16851213 30.9966774,4.14260456 C31.1239211,4.11669699 31.2171251,4.14260456 31.2082099,4.25626357 C31.2001052,4.36908686 31.2592695,4.56882586 31.3435583,4.75185031 C31.4286576,4.93403902 31.589941,5.23907976 31.7001649,5.16971433 C31.8095782,5.09951317 31.9789663,5.00340445 32.0559609,5.07276988 C32.1321451,5.14297103 32.0300259,5.25579432 31.9287172,5.32515975 C31.8274086,5.3953609 31.7674338,5.46472633 31.776349,5.56919234 C31.7844537,5.67365834 31.8857624,5.69956591 32.0891902,5.69956591 C32.292618,5.69956591 32.4539014,5.68201562 32.5892498,5.73383076 C32.7245982,5.78648163 33.0471651,5.83077522 33.2668023,5.75221678 C33.4880604,5.67365834 33.5042698,5.65610805 33.513185,5.5173772 C33.5221001,5.37781061 33.2416777,5.40371818 33.0974142,5.43881876 C32.9539611,5.47391934 32.8777769,5.4906339 32.8186127,5.42126847 C32.7586379,5.35106732 32.8186127,5.27418034 32.9880008,5.26498733 C33.1573889,5.25579432 33.326777,5.25579432 33.2668023,5.12542074 C33.2489719,5.08447007 33.2319521,5.04936949 33.2141218,5.02346192 C33.1776506,4.97081106 33.0949828,4.97164678 33.0382499,4.94156057 C32.9636867,4.90144563 32.9077643,4.83960175 33.0560802,4.79447244 C33.2035857,4.75017885 33.5464142,4.68248488 33.5804539,4.95158931 C33.6144937,5.22069374 33.5804539,5.33435276 33.7757771,5.33435276 C33.9711002,5.33435276 34.2499017,5.13461375 34.3431057,5.09115589 C34.4371201,5.04686231 34.4533295,4.97749688 34.2928566,4.87303087 C34.1315732,4.76856487 34.1315732,4.70839245 34.1907374,4.62983401 C34.2499017,4.55127558 34.2499017,4.50865344 34.1818223,4.43009501 C34.1145533,4.35153657 34.122658,4.20277698 34.2928566,4.15179757 C34.4622447,4.09831097 34.6227176,4.07323913 34.7499613,3.95122284 C34.877205,3.82920654 34.970409,3.73393354 34.9955336,3.82084926 C35.0206581,3.90776498 34.8261455,4.08159641 34.7758964,4.18606242 C34.7248368,4.29052842 34.7078169,4.61228372 34.8942249,4.68248488 C35.0806329,4.75185031 35.156817,4.78695088 35.250021,4.81202273 C35.343225,4.83876602 35.4023892,4.76856487 35.4955932,4.65574158 C35.5896077,4.54291829 35.5806925,4.35153657 35.5045084,4.29972143 C35.4275138,4.24707057 35.3683495,4.22952028 35.3010806,4.17686941 C35.2330011,4.12505427 35.2078766,4.04733156 35.2921654,4.04733156 C35.3772647,4.04733156 35.4445337,4.01223098 35.5126131,4.09078942 C35.5806925,4.16851213 35.7500806,4.30724299 35.8262648,4.16851213 C35.9024489,4.02894555 36.0377973,3.82920654 36.2161006,3.79494169 C36.3935934,3.75984111 36.4106132,3.74229082 36.4867973,3.69883297 C36.5637919,3.65537511 36.6391656,3.71638326 36.6902252,3.78574868 C36.7404743,3.85511411 36.8012595,3.8726644 36.9617324,3.88185741 C37.1222054,3.89021469 37.3434635,3.88185741 37.2243245,3.9946807 C37.105996,4.10750398 37.0290014,4.15179757 37.2154094,4.19525543 C37.4018173,4.23787756 37.5541856,4.22952028 37.6652199,4.27297814 C37.7754438,4.31643599 37.8678373,4.23787756 37.9107921,4.12505427 C37.9529366,4.01223098 37.9780611,3.95958012 37.8516279,3.9946807 C37.7235737,4.02894555 37.6392849,3.9946807 37.715469,3.89857197 C37.7916531,3.80329897 37.9529366,3.62027453 38.0712651,3.51580852 C38.1904041,3.41217825 38.207424,3.39379223 38.2836081,3.48990095 C38.3597922,3.58600968 38.4100413,3.6461821 38.5121605,3.68128268 C38.6134691,3.71638326 38.656424,3.71638326 38.6815486,3.82920654 C38.7066731,3.94286556 38.7998771,4.02058826 38.9611605,3.98632341 C39.122444,3.95122284 39.5876534,3.59436696 39.7910812,3.59436696 C39.9945091,3.59436696 40.0877131,3.5509091 40.1557925,3.46399338 C40.2230614,3.37707767 40.4183846,3.15895265 40.7239316,3.15895265 C41.0286681,3.15895265 41.1640165,3.1246878 41.3252999,2.98512121 C41.4857728,2.84639036 41.5789768,2.69846649 41.587892,2.58564321 C41.5968071,2.47281992 41.5287277,2.50708477 41.6041014,2.39426148 C41.6762331,2.28812402 41.798614,2.09256366 41.5781663,2.10760676 C41.4541645,2.11596404 41.5287277,2.03907706 41.5951862,1.97138309 C41.6608342,1.90368912 41.6608342,1.93795397 41.7102729,1.95466853 C41.760522,1.97138309 41.8683144,2.12432132 41.8683144,2.12432132 C41.8683144,2.12432132 41.9428776,2.24633762 42.0028523,2.15022889 C42.0620166,2.0549559 42.1211809,1.97639746 42.2484246,2.01985532 C42.3756683,2.0641489 42.5458669,2.08086347 42.5118271,2.00230503 C42.4777874,1.92458232 42.409708,1.75910817 42.316504,1.75910817 C42.2233,1.75910817 42.1552206,1.67219245 42.2994841,1.55017616 C42.4437477,1.42815986 42.6301557,1.22925659 42.715255,0.976030987 C42.7995438,0.723641116 42.8165636,0.628368119 42.8335835,0.533095121 C42.8506034,0.436150668 42.9008525,0.436150668 42.9940565,0.428629115 C43.0880709,0.419436107 43.3166233,0.34087767 43.4349518,0.445343676 C43.5532804,0.549809682 43.6967335,0.567359971 43.8750367,0.506351824 C44.05334,0.445343676 44.1716685,0.36678524 44.1886884,0.245604673 C44.2057083,0.123588378 44.1886884,-0.0393785914 44.3159321,0.0299868365 C44.4423653,0.0993522645 44.4010314,0.106873817 44.4764051,0.150331675 C44.5533997,0.192953806 44.5785242,0.236411664 44.5444845,0.375978248 C44.5104448,0.515544832 44.5363798,0.567359971 44.6295838,0.523902113 C44.7227878,0.480444254 44.9262156,0.359263687 44.9513401,0.262319234 C44.9772752,0.167046236 44.9343203,0.0976808084 45.0956037,0.0884877999 C47.0229,-0.0159782061 43.5743526,-0.0268426707 42.4664409,0.0500443097" id="路径" stroke="#2F5F91" fill="#0A305D"></path>
            <path d="M6.5280403,-7.10542736e-15 L4,2.92881818 C4.16086712,3.34230359 4.80011932,3.65163407 4.80011932,4.31206216 C4.80011932,4.97413107 4.72008592,5.59435919 5.00100314,6.37948923 C5.28192035,7.16461927 5.72450502,7.28850081 6.5280403,7.90872893 C7.33157559,8.52895705 7.73414356,8.36405513 8.37681172,8.69385897 C9.01947988,9.02448322 9.66214804,9.02448322 9.66214804,9.02448322 C9.66214804,9.02448322 9.70056407,8.9572098 9.97747961,8.97607917 C10.2527945,8.99494855 10.2904102,8.9572098 10.5481177,8.84399356 C10.8066256,8.73077731 10.9722947,8.61674066 10.9722947,8.61674066 C10.9722947,8.61674066 11.4332871,8.25822255 11.414079,8.56095295 C11.3964717,8.86286293 11.378064,8.91947105 11.5445335,8.80625481 C11.7102026,8.69303856 11.747018,8.61674066 11.7654256,8.50434482 C11.783033,8.39030817 11.8390564,8.27709193 11.9863178,8.2959613 C12.1335793,8.31483068 12.1888023,8.44691629 12.1888023,8.56095295 C12.1888023,8.67416919 12.2808407,8.73077731 12.3736794,8.65447941 C12.4657178,8.57900191 12.5761639,8.48465504 12.5761639,8.3714388 C12.5761639,8.25822255 12.3368641,7.88083507 12.4473102,7.67245155 C12.5577563,7.46488844 12.7050177,7.25650492 12.7050177,7.4829374 C12.7050177,7.7101903 12.7794488,7.99323091 12.9083025,8.05065944 C13.0371563,8.10726756 13.2396408,8.18274506 13.2580485,8.31483068 C13.2764561,8.44691629 13.3869022,8.65447941 13.534964,8.61674066 C13.6814251,8.57900191 13.7006331,8.52239379 13.7006331,8.3714388 C13.7006331,8.22048381 13.534964,7.72905967 13.7558562,7.86114529 C13.9775487,7.99323091 13.8847099,7.99323091 13.8847099,8.22048381 C13.8847099,8.44691629 13.8294869,8.46660608 14.1800332,8.52239379 C14.5297791,8.57900191 14.8619177,8.59869169 14.7330639,8.82512418 C14.6034098,9.05237708 14.4561484,9.20251166 14.6034098,9.29685853 C14.7506713,9.39202581 14.898733,9.59056444 15.0660028,9.44289108 C15.234073,9.29521772 15.1148232,9.19676881 15.5213929,9.22220144 C15.9287628,9.24681367 16.0007929,9.17297699 16.168863,9.02530363 C16.3361328,8.87845067 16.3601428,8.92685472 16.4081629,8.75538954 C16.4561829,8.58310395 16.0728229,8.21474095 16.3129231,8.09250023 C16.5514226,7.96861868 16.4081629,8.21474095 16.6722731,8.36241431 C16.9355829,8.50926727 16.9587926,8.75538954 16.9587926,8.75538954 C16.9587926,8.75538954 17.1036531,8.85301804 17.414983,8.6323284 C17.7263129,8.41081836 17.6542828,7.894782 18.3249627,7.65030055 C18.9964428,7.40417828 19.3798028,7.37956605 19.4510325,7.13426419 C19.5230626,6.88814192 18.9724328,6.39671779 19.6431127,6.42133001 C20.3145929,6.44594224 20.5538927,6.34831374 20.6499328,6.07839965 C20.7459729,5.80684475 20.6019127,6.02835479 20.7459729,5.53693066 C20.8892326,5.04632694 21.1773528,4.77559244 21.4166527,4.70257617 C21.6559525,4.62873948 22.6859823,3.91662572 22.9500925,3.54826272 C23.2142027,3.17907932 23.2614224,2.83450814 23.2854325,2.44235332 C23.3094425,2.04855769 23.3814725,1.50872951 23.6447824,1.04191761 C23.9088926,0.575926111 24.441915,0.0672734204 24.441915,0.0672734204" id="路径" stroke="#2F5F91" fill="#0A305D"></path>
            <path d="M59.7027947,1.06786508 C59.8135006,1.06702416 60.5835936,0.912293511 60.5375335,1.07291065 C60.4930895,1.23352778 60.5189478,1.60269492 60.5254124,1.76247113 C60.5310689,1.9239292 60.1108712,2.92883746 60.0656192,3.04909008 C60.0211752,3.17018363 59.5815838,4.2028425 59.4838071,4.37691447 C59.3868384,4.55098645 59.2510822,4.69142133 59.070074,4.82512879 C58.8890658,4.95883625 58.6167454,5.52898504 58.4422017,5.90403866 C58.2684662,6.27909229 58.3266474,6.73487495 58.333112,6.89549209 C58.3395765,7.05610923 58.3589703,7.79360257 58.3654349,7.90040036 C58.3718994,8.00803906 58.3912932,8.12829169 58.3452331,8.12156427 C58.3007891,8.11483685 58.1706894,8.055131 58.0737207,7.95421971 C57.976752,7.85330842 57.7957438,7.84742193 57.6729168,7.8129439 C57.5500898,7.77930681 57.4983732,7.35716124 57.4143336,6.81476306 C57.3302941,6.27152395 56.6644425,5.96374451 56.2563659,5.72996669 C55.8490974,5.49534794 55.8434409,5.18672758 55.8297037,5.05302012 C55.8167745,4.91931266 55.8046534,4.70403524 55.732735,4.34916387 C55.6616246,3.99345157 55.3125373,3.68567214 55.1444583,3.47123564 C54.9763792,3.25764008 55.0345604,2.83549452 55.1121354,2.62105802 C55.1897103,2.40662153 55.2220332,2.27291407 55.3060728,2.19218504 C55.3901123,2.11145601 55.3513248,1.91720178 55.3319311,1.82974532 C55.3125373,1.7431298 55.2794064,1.29491549 55.2745579,1.13345742 C55.2672853,0.972840285 55.6794022,1.08047899 55.6794022,1.08047899 L56.2183865,1.14607133 L58.0793772,1.06870601 L59.7027947,1.06786508 Z" id="Fill-211" fill="#DFEFE1"></path>
            <path d="M12.2888425,19.3387863 C12.2888425,19.3387863 11.8902784,19.7381441 11.6242893,19.8747454 C11.3591393,20.0113467 11.1334261,20.1190206 11.1132881,20.2355335 C11.0923111,20.3528498 11.1233571,20.4211505 11.0923111,20.5183784 C11.0621041,20.6156064 11.1032191,20.6453372 11.1334261,20.7329228 C11.1644721,20.8205083 11.1334261,20.966752 11.0721731,21.0639799 C11.0117592,21.1620114 11.0008511,21.2303121 11.0419661,21.3468249 C11.0830812,21.4641413 11.0923111,21.6778821 11.051196,21.89323 C11.0117592,22.1069708 10.9597361,22.1463441 11.0923111,22.3215151 C11.2248861,22.4974897 11.3482312,22.5360595 11.3381622,22.9362208 C11.3272541,23.3355786 11.2660011,23.5308381 11.4195532,23.5597654 C11.5731053,23.5886927 12.1453594,23.7445789 12.2787735,23.8908226 C12.4113485,24.0378698 12.4826705,24.0764396 12.6471307,24.0667972 C12.8099127,24.0563512 12.9122807,24.0764396 13.0146488,24.2516106 C13.1170168,24.4267817 13.1682008,24.5055283 13.2907068,24.476601 C13.414052,24.4460666 14.0475591,24.3295537 14.1910422,24.5248132 C14.3345253,24.7192691 14.3437552,24.7393575 14.5082154,24.7104302 C14.6709973,24.6806993 14.7322503,24.6115951 14.7834344,24.6903418 C14.8346184,24.7682848 14.8958714,24.7393575 14.9982394,24.6999842 C15.1006075,24.6614144 15.1316535,24.6421295 15.2541596,24.6115951 C15.3766656,24.5826678 15.3355506,24.5143672 15.3355506,24.5143672 C15.3355506,24.5143672 15.2751366,24.4171392 15.3556885,24.3488386 C15.4379186,24.280538 15.4790336,24.1744711 15.4991716,24.1150094 C15.5201487,24.0563512 15.5293786,24.0274239 15.6837697,24.0177814 C15.8373218,24.008139 15.9287818,24.0667972 16.1024718,23.9012686 C16.2761619,23.73574 16.3172769,23.73574 16.3172769,23.8618953 C16.3172769,23.9880506 16.3273459,24.086082 16.3986679,23.9984965 C16.4699899,23.9101075 16.5111049,23.8715377 16.63445,23.8418068 C16.7569561,23.8128795 16.746048,23.7156516 16.7569561,23.6377085 C16.7670251,23.5597654 16.8996001,23.2182622 17.0632211,23.1788889 C17.2276813,23.1403192 17.2478193,23.1306767 17.3493482,23.0045214 C17.398015,22.9442562 17.7613377,22.6365016 17.7898665,22.8478318 C17.7990964,22.9265784 17.8922345,22.9265784 17.9727864,22.8478318 C18.0550165,22.7706922 18.1984996,22.623645 18.3419826,22.526417 C18.4846267,22.4291891 18.5358107,22.3697273 18.5660176,22.2041987 C18.5979028,22.0386701 18.5156727,22.0290277 18.4745577,22.1270592 C18.4334426,22.2242872 18.3419826,22.2829454 18.3109366,22.1849139 C18.2807296,22.0876859 18.3210056,22.0001004 18.3923276,21.9125149 C18.4636496,21.8249293 18.5458797,21.6682397 18.5458797,21.5613693 C18.5458797,21.4544989 18.5458797,21.4151256 18.6071327,21.3178976 C18.6692248,21.2198661 18.6994317,21.2198661 18.6994317,21.0639799 C18.6994317,20.9080938 18.8831908,20.49829 18.9855588,20.4107045 C19.0879269,20.3239225 19.1693179,20.2066061 19.1592489,20.1383055 C19.1491799,20.0700049 19.0879269,19.9245647 19.221341,19.865103 C19.353916,19.8064448 19.650112,19.5919004 19.660181,19.4561027 C19.6710891,19.3195014 19.619066,19.2311124 19.588859,19.1636153 C19.557813,19.0953147 19.486491,19.0559414 19.6098361,19.0077291 C19.731503,18.9587134 19.9672852,18.7835424 19.9161012,18.8904128 C19.8649171,18.9972832 19.7726181,19.1338844 19.8137331,19.2214699 C19.8548481,19.309859 19.8548481,19.3781596 19.9270092,19.3781596 C19.9983312,19.3781596 19.9882622,19.3387863 20.0075611,19.2415584 C20.0285382,19.1443304 20.1611132,19.0173716 20.2534123,18.9289825 C20.3457113,18.841397 20.4883553,18.8124697 20.4271023,18.6951533 C20.3658493,18.5786405 20.2743893,18.1302669 20.2425042,17.8964377 C20.2122972,17.6618049 20.0386072,17.370121 19.8858942,17.3500326 C19.731503,17.3307477 19.2414789,17.3211053 19.2003639,17.0872761 C19.1592489,16.8526433 19.1592489,16.7554153 18.9956278,16.8823742 C18.8320067,17.009333 18.6784547,17.1459343 18.6893627,17.3307477 C18.6994317,17.5155612 18.6071327,17.5935043 18.5358107,17.4962763 C18.4636496,17.3990484 18.3419826,17.2431622 18.2085686,17.184504 C18.0751545,17.1258458 17.9937635,17.0479028 17.8611885,17.1162034 C17.7277744,17.184504 17.5230383,17.1748616 17.2990033,17.1258458 C17.0732901,17.0776336 16.9818301,17.1073645 16.9105081,17.184504 C16.8383471,17.2624471 16.8383471,17.3114629 16.8383471,17.370121 C16.8383471,17.4279757 16.72591,17.5067223 16.63445,17.564577 C16.542151,17.6232351 16.3986679,17.6810898 16.3072079,17.6135927 C16.2149089,17.5452921 16.0915638,17.4769914 16.0202418,17.5549345 C15.9489198,17.6328776 15.9187128,17.7598364 15.8264137,17.6618049 C15.7341147,17.564577 15.6728617,17.5260072 15.5402867,17.5067223 C15.4068726,17.4866339 15.3053436,17.4472606 15.2340216,17.3894059 C15.1618605,17.3307477 15.1207455,17.3211053 14.9470554,17.4279757 C14.7733654,17.5356496 14.5484913,17.7694789 14.5786983,17.8964377 C14.6097443,18.022593 14.6500203,18.0908936 14.5384223,18.1198209 C14.4259853,18.1503553 14.2212492,18.1881216 14.1910422,18.1013396 C14.1591571,18.0137541 14.1088121,17.925365 13.9049151,17.9157226 C13.700179,17.9060801 13.414052,17.9350074 13.3527989,18.0515203 C13.2907068,18.1688367 13.2294538,18.2765106 13.1791089,18.3930235 C13.1270858,18.5103398 13.1472238,18.5786405 13.2705689,18.5103398 C13.3930749,18.4420392 13.4744659,18.4026659 13.4946039,18.4613241 C13.5155809,18.5199823 13.5055119,18.6075678 13.3930749,18.6565835 C13.2806379,18.7055993 13.2504309,18.6951533 13.1791089,18.8028272 C13.1069478,18.9105012 12.9231888,18.9683558 12.7687976,18.9972832 C12.476797,19.0543343 12.4675671,19.2206664 12.2888425,19.3387863" id="Fill-213" stroke="#2F5F91" fill="#0A305D"></path>
            <path d="M53.46347,24.3675038 L56.088288,25.5307624 L56.2111836,25.1174172 C56.4420281,24.4041067 56.6728726,23.6791904 56.9643345,22.994448 C57.2699128,22.3436302 57.5945897,21.6999545 57.9142844,21.0580643 L58.180835,20.55098 L55.6473584,19.200243 C55.4879263,19.4644983 54.8427243,20.816128 54.4889842,21.5258675 C54.1360744,22.235607 53.46347,24.3675038 53.46347,24.3675038" id="Fill-219" stroke="#2F5F91" fill="#0A305D"></path>
            <path d="M13.9072549,37.4004861 L13.4117052,35.9579433 C13.1215864,35.1611482 12.2109823,33.9623592 11.7934125,33.2358931 L14.2392983,31.8612817 C14.281223,31.9172252 14.7532949,32.5342019 14.7994121,32.5989365 C15.2530371,33.2263028 15.9079006,34.2540645 16.2307206,35.3505569 C16.2558755,35.4304762 16.4906537,36.3271703 16.5107775,36.408688 L13.9072549,37.4004861 Z" id="Fill-223" stroke="#2F5F91" fill="#0A305D"></path>
            <path d="M55.2381852,0.0611730406 C55.2446518,0.223451523 55.2769846,0.677151574 55.295576,0.764663007 C55.3157841,0.853024066 55.3545835,1.04928757 55.2697097,1.13085163 C55.1864526,1.21156605 55.1541198,1.34750614 55.0765209,1.56416066 C54.9981137,1.77996556 54.9407228,2.20647759 55.1088537,2.42313211 C55.2769846,2.63978663 55.6253713,2.95159921 55.6965036,3.3101412 C55.7684442,3.66868318 55.7813774,3.88618733 55.7935022,4.02127779 C55.8072437,4.15636826 55.8137102,4.46818084 56.2211043,4.70522637 C56.6293068,4.94142228 57.2953638,5.25238523 57.378621,5.80124335 C57.4634947,6.34925184 57.514419,6.77576387 57.6380922,6.80974889 C57.7609571,6.84373391 57.9420212,6.85053092 58.0390198,6.95248599 C58.1360184,7.05359143 58.2653498,7.11476447 58.3106158,7.12156147 C58.3558819,7.12835848 58.3364821,7.00686202 58.3300156,6.89810995 C58.323549,6.7902075 58.3041493,6.04508588 58.2976827,5.88365703 C58.2912161,5.72052892 58.233017,5.26003186 58.4076144,4.88109886 C58.5822119,4.50216586 58.8546163,3.92611973 59.034872,3.79102926 C59.2167444,3.65508917 59.3525425,3.51320171 59.4487327,3.33732921 C59.5465397,3.16145672 59.9862666,2.11896616 60.0315327,1.99662007 C60.0759903,1.87512362 60.4971259,0.858971445 60.4906594,0.696692962 C60.4841928,0.535264105 60.4583265,0.162278483 60.5035925,-3.37507799e-14" id="Stroke-227" stroke="#2F5F91" fill="#0A305D"></path>
            <path d="M16.8012415,52.4354695 L14.152095,51.3839286 L14.8552682,50.6697317 C15.347414,49.9236239 15.456696,49.0734258 15.4762914,48.1943558 L15.3413847,47.68758 L18.0832325,47.8600509 C18.0832325,48.8766418 18.0259537,49.2542543 17.8820029,50.0679829 C17.7380521,50.8809516 17.3627249,51.5784332 17.3627249,51.5784332 C17.3627249,51.5784332 17.0778381,52.0768515 16.8012415,52.4354695" id="Fill-231" stroke="#2F5F91" fill="#0A305D"></path>
            <path d="M9.43473001,72.584634 L6.64277631,73.0096573 C6.58408183,72.8113705 6.53093953,72.6096353 6.48255624,72.399279 C6.13594154,70.4991749 6.30885231,68.5792421 6.59280669,66.6791379 L9.31416837,67.0851947 C9.29671866,67.1929592 9.27847578,67.3119312 9.25706023,67.4429729 C9.03735251,68.8361527 9.03655934,69.8939693 9.03655934,69.8939693 C9.03655934,69.8939693 8.92630889,71.598373 9.43473001,72.584634" id="Fill-233" stroke="#2F5F91" fill="#0A305D"></path>
            <polygon id="Fill-235" stroke="#2F5F91" fill="#0A305D" points="38.5251475 69.3849531 40.6356817 71.4270274 44.02874 67.2718192 42.014618 65.0965081"></polygon>
            <polygon id="Fill-239" stroke="#2F5F91" fill="#0A305D" points="51.891015 36.6091712 54.9066099 36.574312 55.035925 31.1464869 51.9737064 31.0699668"></polygon>
            <polygon id="Fill-243" stroke="#2F5F91" fill="#0A305D" points="58.180835 13.4958719 60.378235 15.2436685 61.325745 13.8498007 61.3114968 8.91314915"></polygon>
            <path d="M23.586825,83.9098488 L24.1868159,86.4620108 C25.0338618,86.3866112 25.876706,86.2350504 26.7002229,86.045409 C27.6867625,85.8070245 28.6371681,85.4262184 29.5564818,85.0263721 C29.5867335,85.0126631 29.8472337,84.906799 29.876645,84.8938516 L28.6976714,82.5054362 C27.8161723,82.9715428 26.3187161,83.4528816 26.3187161,83.4528816 C26.3187161,83.4528816 25.0632731,83.8024615 23.586825,83.9098488" id="Fill-253" stroke="#2F5F91" fill="#0A305D"></path>
            <path d="M50.31856,53.5361592 L52.7244412,54.8094142 L52.8547598,54.5669725 C53.0953479,54.100403 53.3342653,53.6338336 53.5698412,53.1672641 C54.1119998,52.0701717 54.5547488,50.931219 54.9949916,49.7852894 L55.035925,49.686743 L52.5849336,48.4788949 C52.3577114,49.1094178 51.773784,50.5422657 51.5540803,51.0707537 C51.3761453,51.4998232 50.6635701,52.8751131 50.31856,53.5361592" id="Fill-257" stroke="#2F5F91" fill="#0A305D"></path>
            <path d="M61.5,0.5 L61.5,93.5 L0.5,93.5 L0.5,6.52687174 L5.79096665,0.5 L61.5,0.5 Z" id="Stroke-265" stroke="#2F5F91"></path>
        </g>
    </g>
</svg>